<svg width="162" height="59" viewBox="0 0 162 59" fill="none" xmlns="http://www.w3.org/2000/svg">
<path d="M103.546 27.6971C104.102 28.4612 98.183 34.0133 96.8547 35.2739C98.2268 33.2981 99.5811 31.3089 101.047 29.4165C101.076 29.3787 102.992 26.9342 103.546 27.6971Z" fill="black"/>
<path d="M83.2638 47.6932C88.3227 44.2929 92.4036 39.8804 96.6052 35.514C96.6352 35.4828 96.7221 35.3997 96.8547 35.2739M96.8547 35.2739C98.183 34.0133 104.102 28.4612 103.546 27.6971C102.992 26.9342 101.076 29.3787 101.047 29.4165C99.5811 31.3089 98.2268 33.2981 96.8547 35.2739ZM96.8547 35.2739C95.0935 37.8099 93.3027 40.3239 91.2081 42.5827C90.6439 43.1912 87.2404 46.5469 89.6002 46.5469C92.3426 46.5469 94.8866 46.3603 97.5922 45.9738M130.051 41.9165C128.585 43.4282 128.898 43.3913 130.687 42.7762C133.441 41.8295 136.361 41.6489 139.253 41.6299C145.298 41.5901 150.997 42.9871 156.638 45.1324C157.875 45.603 160.619 46.1249 161 47.6478M154.84 1C144.668 1.04461 134.62 2.00299 124.528 3.29255C119.518 3.93269 114.537 4.69908 109.594 5.7443C94.9478 8.84144 80.2122 12.079 65.7493 15.9334C52.6011 19.4374 40.2162 24.2234 28.0815 30.3892C20.7736 34.1024 13.3268 37.9988 7.03462 43.3644C4.25451 45.735 1.06886 48.8021 1.00076 52.837C0.872307 60.448 17.0274 57.6838 19.7073 57.4858C27.7619 56.8909 44.3198 54.5719 52.3124 53.3146C57.584 52.4854 66.0599 50.9886 71.6717 49.5893C75.5617 48.6193 79.7998 47.3907 83.23 45.2271C84.1006 44.6778 86.0319 43.1919 86.0797 41.8997C86.1216 40.769 79.4805 40.483 78.5175 40.3235C77.1195 40.0921 72.8975 39.6867 74.3145 39.6867M101.331 44.9721C100.827 44.9721 100.309 45.075 99.8693 45.3288C99.3761 45.6134 98.9273 45.9952 98.6342 46.4831C98.582 46.5701 98.3683 47.0119 98.3519 47.1419C98.299 47.5616 98.9452 47.6324 99.2014 47.6522C100.425 47.7468 101.576 47.2189 102.35 46.2899C102.913 45.6124 103.086 44.8412 102.481 44.1596C102.251 43.9011 102.055 43.8666 102.541 43.793C105.502 43.3454 108.422 42.6817 111.328 41.9699C112.487 41.6861 113.632 41.343 114.794 41.0733C115.041 41.016 115.233 40.951 115.162 41.2665C114.948 42.2158 114.62 43.1328 114.423 44.0903C114.298 44.7016 114.167 45.3775 114.131 46.0075C114.105 46.457 114.128 47.1271 114.786 47.1271C115.371 47.1271 116.229 46.6942 116.677 46.4533C117.359 46.0863 118.696 45.2027 119.334 44.8086L119.354 44.7961C119.963 44.4189 120.939 43.8152 121.627 43.5106C122.112 43.2959 122.247 43.2599 122.431 43.6543C122.797 44.4372 123.937 44.4371 124.682 44.437H124.697M121.278 41.0506C122.433 40.7907 123.947 39.6177 121.851 39.6177" stroke="black" stroke-width="1.5" stroke-linecap="round"/>
</svg>
